# xmcd
#
# Track frame offsets: 
#        150
#        16740
#        29713
#        44553
#        58738
#        73610
#        88660
#        102083
#        116563
#        130288
#        150003
#        163895
#        180088
#        191565
#        209258
#        222068
#        233575
#        246315
#        258088
#        272930
#
# Disc length: 3804 seconds
#
# Revision: 10
# Processed by: cddbd v1.5.2PL0 Copyright (c) Steve Scherf et al.
# Submitted via: ExactAudioCopyFreeDBPlugin 1.0
#
DISCID=110eda14
DTITLE=Ray Charles - His Greatest Hits Volume 1
DYEAR=1987
DGENRE=Blues
TTITLE0=Georgia On My Mind
TTITLE1=Unchain My Heart
TTITLE2=Born To Lose
TTITLE3=One Mint Julip
TTITLE4=You Don't Know Me
TTITLE5=Smack Dab In The Middle
TTITLE6=Crying Time
TTITLE7=Hide Nor Hair
TTITLE8=Let's Go Get Stoned
TTITLE9=That Lucky Old Sun
TTITLE10=Don't Change On Me
TTITLE11=Your Cheating Heart
TTITLE12=I Don't Need No Doctor
TTITLE13=Careless Love
TTITLE14=My Heart Cries For You
TTITLE15=I Chose To Sing The Blues
TTITLE16=If You Were Mine
TTITLE17=Baby Don't You Cry
TTITLE18=Here We Go Again
TTITLE19=Yesterday
EXTD=LABEL =DCC Compact Classics, Inc.\nID =DZS036\nUPC =010963-000
EXTD=36\nCOPYRIGHT =1987
EXTT0=Charles, Ray
EXTT1=Charles, Ray
EXTT2=Charles, Ray
EXTT3=Charles, Ray
EXTT4=Charles, Ray
EXTT5=Charles, Ray
EXTT6=Charles, Ray
EXTT7=Charles, Ray
EXTT8=Charles, Ray
EXTT9=Charles, Ray
EXTT10=Charles, Ray
EXTT11=Charles, Ray
EXTT12=Charles, Ray
EXTT13=Charles, Ray
EXTT14=Charles, Ray
EXTT15=Charles, Ray
EXTT16=Charles, Ray
EXTT17=Charles, Ray
EXTT18=Charles, Ray
EXTT19=Charles, Ray
PLAYORDER=
